<svg height="512" width="512" xmlns="http://www.w3.org/2000/svg"><path d="m200.5746307.8524368 230.9992523 61.8963318c8.6272888 2.3116875 15.3659363 9.0503349 17.6776123 17.677578l61.8960266 230.9997406c2.3116455 8.6271973-.1548767 17.8323059-6.4704285 24.1478577l-169.1034545 169.1031486c-6.3156433 6.3156433-15.5209351 8.782196-24.1482849 6.470459l-230.9992294-61.8963318c-8.6272888-2.311676-15.3659592-9.0503235-17.6776123-17.6775513l-61.896031-230.9997711c-2.3116426-8.627182.1548709-17.8322754 6.4704385-24.1478271l169.1034413-169.1031738c6.3156433-6.315632 15.5209198-8.7821614 24.1482696-6.4704606zm-17.4450683 21.8278935-160.4491959 160.4489269c-5.052454 5.0524445-7.0256643 12.4165192-5.1763496 19.3182831l58.7283516 219.1777954c1.8493271 6.9017639 7.2402573 12.2926941 14.1420898 14.1420593l219.1773682 58.7286377c6.901886 1.8493652 14.2661133-.1238708 19.318634-5.1763611l160.4491882-160.4489441c5.0524597-5.0524292 7.0256653-12.4165039 5.1763306-19.3182678l-58.7283401-219.1777801c-1.8493347-6.9017944-7.2402649-12.292717-14.1420898-14.142067l-219.1773682-58.728653c-6.901886-1.8493585-14.2661133.1238652-19.3186188 5.1763707z"/></svg>