<?xml version="1.0" encoding="utf-8"?>
<!-- Generator: Adobe Illustrator 22.1.0, SVG Export Plug-In . SVG Version: 6.00 Build 0)  -->
<svg version="1.1" id="Layer_1" xmlns="http://www.w3.org/2000/svg" xmlns:xlink="http://www.w3.org/1999/xlink" x="0px" y="0px"
	 width="64px" height="64px" viewBox="0 0 64 64" style="enable-background:new 0 0 64 64;" xml:space="preserve">
<style type="text/css">
	.st0{opacity:0.19;enable-background:new    ;}
	.st1{fill:#E51743;}
</style>
<ellipse class="st0" cx="32.6" cy="59.6" rx="13.9" ry="4.4"/>
<path class="st1" d="M32.6,0C21.1,0,11.9,9.2,11.9,20.7s20.7,39.1,20.7,39.1s20.7-27.6,20.7-39.1S44,0,32.6,0z M32.7,34.6
	c-7.7,0-14-6.3-14-14s6.3-14,14-14s14,6.3,14,14S40.4,34.6,32.7,34.6z M40.1,12.5v16h-4.5v-6.2h-6.2v6.2h-4.5v-16h4.5v6h6.2v-6H40.1
	z"/>
</svg>
