<?xml version="1.0" encoding="UTF-8"?>
<!DOCTYPE svg PUBLIC "-//W3C//DTD SVG 1.1//EN" "http://www.w3.org/Graphics/SVG/1.1/DTD/svg11.dtd">
<svg xmlns="http://www.w3.org/2000/svg" version="1.1" width="96px" height="96px" style="shape-rendering:geometricPrecision; text-rendering:geometricPrecision; image-rendering:optimizeQuality; fill-rule:evenodd; clip-rule:evenodd" xmlns:xlink="http://www.w3.org/1999/xlink">
<g><path style="opacity:1" fill="#999999" d="M 11.5,5.5 C 11.5,6.5 11.5,7.5 11.5,8.5C 8.05044,9.24365 6.38377,7.91032 6.5,4.5C 8.58571,2.97663 10.2524,3.30997 11.5,5.5 Z"/></g>
<g><path style="opacity:0.964" fill="#1b1b1b" d="M 24.5,8.5 C 22.5415,23.2577 21.8748,38.2577 22.5,53.5C 25.1667,53.5 27.8333,53.5 30.5,53.5C 30.1771,47.31 30.5104,41.31 31.5,35.5C 34.0403,34.9388 36.5403,35.6055 39,37.5C 39.1667,37.1667 39.3333,36.8333 39.5,36.5C 37.3619,34.2178 35.0286,33.5511 32.5,34.5C 30.5316,26.5671 29.865,18.2337 30.5,9.5C 29.209,9.73731 28.209,9.40397 27.5,8.5C 31.2148,8.42305 34.8815,8.75638 38.5,9.5C 37.2185,12.9359 37.2185,16.2693 38.5,19.5C 37.074,22.6501 37.2407,25.6501 39,28.5C 39.3534,27.3284 39.1868,26.1618 38.5,25C 38.6107,23.2785 39.1107,23.1118 40,24.5C 40.2148,27.8557 40.2148,31.189 40,34.5C 42.2003,35.6508 43.7003,37.3175 44.5,39.5C 44.5654,39.9382 44.3988,40.2716 44,40.5C 43.5814,39.3279 42.9147,38.3279 42,37.5C 41.5045,39.4727 41.3379,41.4727 41.5,43.5C 38.7462,43.7845 36.0795,44.4512 33.5,45.5C 34.2754,49.251 35.6088,49.4177 37.5,46C 38.7932,45.51 40.1266,45.3433 41.5,45.5C 41.5,48.8333 41.5,52.1667 41.5,55.5C 34.1958,54.6979 26.8625,54.3646 19.5,54.5C 18.517,39.5781 18.1836,24.5781 18.5,9.5C 20.2646,8.53862 22.2646,8.20528 24.5,8.5 Z"/></g>
<g><path style="opacity:0.996" fill="#222222" d="M 24.5,8.5 C 25.5,8.5 26.5,8.5 27.5,8.5C 28.209,9.40397 29.209,9.73731 30.5,9.5C 29.865,18.2337 30.5316,26.5671 32.5,34.5C 32.5,35.1667 32.1667,35.5 31.5,35.5C 30.5104,41.31 30.1771,47.31 30.5,53.5C 27.8333,53.5 25.1667,53.5 22.5,53.5C 21.8748,38.2577 22.5415,23.2577 24.5,8.5 Z"/></g>
<g><path style="opacity:0.984" fill="#101010" d="M 18.5,9.5 C 18.1836,24.5781 18.517,39.5781 19.5,54.5C 16.885,55.2906 14.2184,55.9573 11.5,56.5C 10.1667,41.1667 10.1667,25.8333 11.5,10.5C 13.7638,9.78138 16.0971,9.44805 18.5,9.5 Z"/></g>
<g><path style="opacity:0.694" fill="#bebebe" d="M 6.5,10.5 C 8.49131,37.146 9.15797,64.146 8.5,91.5C 6.50869,64.854 5.84203,37.854 6.5,10.5 Z"/></g>
<g><path style="opacity:0.992" fill="#535353" d="M 6.5,4.5 C 6.38377,7.91032 8.05044,9.24365 11.5,8.5C 11.5,7.5 11.5,6.5 11.5,5.5C 12.7199,7.04959 12.7199,8.71626 11.5,10.5C 10.1667,25.8333 10.1667,41.1667 11.5,56.5C 11.5,68.1667 11.5,79.8333 11.5,91.5C 10.5,91.5 9.5,91.5 8.5,91.5C 9.15797,64.146 8.49131,37.146 6.5,10.5C 5.16667,8.5 5.16667,6.5 6.5,4.5 Z"/></g>
<g><path style="opacity:0.987" fill="#151515" d="M 74.5,59.5 C 75.209,58.596 76.209,58.2627 77.5,58.5C 78.1252,43.2577 77.4585,28.2577 75.5,13.5C 80.1667,12.8333 84.8333,12.1667 89.5,11.5C 89.6666,26.5037 89.4999,41.5037 89,56.5C 84.3624,58.3019 79.5291,59.3019 74.5,59.5 Z"/></g>
<g><path style="opacity:0.99" fill="#262626" d="M 69.5,13.5 C 71.5,13.5 73.5,13.5 75.5,13.5C 77.4585,28.2577 78.1252,43.2577 77.5,58.5C 76.209,58.2627 75.209,58.596 74.5,59.5C 72.5,59.5 70.5,59.5 68.5,59.5C 67.2825,58.8386 65.9492,58.1719 64.5,57.5C 63.944,56.3366 63.6107,55.3366 63.5,54.5C 64.1157,53.2022 64.1157,52.2022 63.5,51.5C 64.5691,48.592 64.7358,45.592 64,42.5C 63.6174,41.944 63.1174,41.6107 62.5,41.5C 63.5676,40.5655 64.901,40.2322 66.5,40.5C 66.7678,38.901 66.4345,37.5676 65.5,36.5C 66.464,29.2537 66.7973,21.9204 66.5,14.5C 67.791,14.7373 68.791,14.404 69.5,13.5 Z"/></g>
<g><path style="opacity:1" fill="#f1f1f1" d="M 52.5,17.5 C 52.5,21.5 52.5,25.5 52.5,29.5C 51.8529,30.2739 51.5195,31.2739 51.5,32.5C 51.3402,34.3545 52.0069,35.6879 53.5,36.5C 53.5,38.1667 53.5,39.8333 53.5,41.5C 52.791,42.404 51.791,42.7373 50.5,42.5C 48.2895,41.8772 46.2895,40.8772 44.5,39.5C 43.7003,37.3175 42.2003,35.6508 40,34.5C 40.2148,31.189 40.2148,27.8557 40,24.5C 39.1107,23.1118 38.6107,23.2785 38.5,25C 39.1868,26.1618 39.3534,27.3284 39,28.5C 37.2407,25.6501 37.074,22.6501 38.5,19.5C 42.7475,16.3846 47.4142,15.7179 52.5,17.5 Z"/></g>
<g><path style="opacity:1" fill="#bbbbbb" d="M 52.5,17.5 C 60.0611,19.6273 62.5611,24.294 60,31.5C 59.6667,29.5 59.3333,27.5 59,25.5C 58.5431,29.8823 58.5431,34.2157 59,38.5C 57.4167,39.9711 55.5834,40.9711 53.5,41.5C 53.5,39.8333 53.5,38.1667 53.5,36.5C 54.5,36.5 55.5,36.5 56.5,36.5C 57.3201,32.7779 55.9868,30.4446 52.5,29.5C 52.5,25.5 52.5,21.5 52.5,17.5 Z"/></g>
<g><path style="opacity:1" fill="#1b1b1b" d="M 42.5,27.5 C 46.9764,27.8003 48.3097,29.9669 46.5,34C 41.5705,34.427 40.2372,32.2604 42.5,27.5 Z"/></g>
<g><path style="opacity:1" fill="#131313" d="M 52.5,29.5 C 55.9868,30.4446 57.3201,32.7779 56.5,36.5C 55.5,36.5 54.5,36.5 53.5,36.5C 52.0069,35.6879 51.3402,34.3545 51.5,32.5C 51.5195,31.2739 51.8529,30.2739 52.5,29.5 Z"/></g>
<g><path style="opacity:1" fill="#d1d1d1" d="M 31.5,35.5 C 32.1667,35.5 32.5,35.1667 32.5,34.5C 35.0286,33.5511 37.3619,34.2178 39.5,36.5C 39.3333,36.8333 39.1667,37.1667 39,37.5C 36.5403,35.6055 34.0403,34.9388 31.5,35.5 Z"/></g>
<g><path style="opacity:1" fill="#181818" d="M 48.5,34.5 C 50.7082,35.9175 51.5415,37.9175 51,40.5C 50.1475,38.8753 49.1475,38.5419 48,39.5C 47.3603,37.735 47.5269,36.0683 48.5,34.5 Z"/></g>
<g><path style="opacity:1" fill="#797979" d="M 44.5,39.5 C 46.2895,40.8772 48.2895,41.8772 50.5,42.5C 52.4888,43.8866 54.3221,43.5532 56,41.5C 56.7891,43.7116 56.6225,45.7116 55.5,47.5C 55.4891,44.9991 54.8224,44.8324 53.5,47C 48.5768,47.9546 45.0768,46.1212 43,41.5C 42.5357,42.0944 42.369,42.7611 42.5,43.5C 42.1667,43.5 41.8333,43.5 41.5,43.5C 41.3379,41.4727 41.5045,39.4727 42,37.5C 42.9147,38.3279 43.5814,39.3279 44,40.5C 44.3988,40.2716 44.5654,39.9382 44.5,39.5 Z"/></g>
<g><path style="opacity:1" fill="#b7b7b7" d="M 65.5,36.5 C 66.4345,37.5676 66.7678,38.901 66.5,40.5C 64.901,40.2322 63.5676,40.5655 62.5,41.5C 61.2618,42.4124 59.9285,42.5791 58.5,42C 61.1518,40.4258 63.4851,38.5924 65.5,36.5 Z"/></g>
<g><path style="opacity:1" fill="#c7c7c7" d="M 41.5,43.5 C 41.5,44.1667 41.5,44.8333 41.5,45.5C 40.1266,45.3433 38.7932,45.51 37.5,46C 35.6088,49.4177 34.2754,49.251 33.5,45.5C 36.0795,44.4512 38.7462,43.7845 41.5,43.5 Z"/></g>
<g><path style="opacity:1" fill="#e0e0e0" d="M 55.5,47.5 C 53.355,50.6007 50.6884,51.1007 47.5,49C 45.6266,47.2962 43.9599,45.4628 42.5,43.5C 42.369,42.7611 42.5357,42.0944 43,41.5C 45.0768,46.1212 48.5768,47.9546 53.5,47C 54.8224,44.8324 55.4891,44.9991 55.5,47.5 Z"/></g>
<g><path style="opacity:0.953" fill="#121212" d="M 38.5,9.5 C 48.7901,11.1594 59.1235,12.4928 69.5,13.5C 68.791,14.404 67.791,14.7373 66.5,14.5C 66.7973,21.9204 66.464,29.2537 65.5,36.5C 63.4851,38.5924 61.1518,40.4258 58.5,42C 59.9285,42.5791 61.2618,42.4124 62.5,41.5C 63.1174,41.6107 63.6174,41.944 64,42.5C 64.7358,45.592 64.5691,48.592 63.5,51.5C 61.2433,51.0383 59.2433,50.0383 57.5,48.5C 57.1667,48.8333 56.8333,49.1667 56.5,49.5C 58.6866,51.4216 61.0199,53.0883 63.5,54.5C 63.6107,55.3366 63.944,56.3366 64.5,57.5C 65.9492,58.1719 67.2825,58.8386 68.5,59.5C 59.4081,58.7067 50.4081,57.3734 41.5,55.5C 41.5,52.1667 41.5,48.8333 41.5,45.5C 41.5,44.8333 41.5,44.1667 41.5,43.5C 41.8333,43.5 42.1667,43.5 42.5,43.5C 43.9599,45.4628 45.6266,47.2962 47.5,49C 50.6884,51.1007 53.355,50.6007 55.5,47.5C 56.6225,45.7116 56.7891,43.7116 56,41.5C 54.3221,43.5532 52.4888,43.8866 50.5,42.5C 51.791,42.7373 52.791,42.404 53.5,41.5C 55.5834,40.9711 57.4167,39.9711 59,38.5C 58.5431,34.2157 58.5431,29.8823 59,25.5C 59.3333,27.5 59.6667,29.5 60,31.5C 62.5611,24.294 60.0611,19.6273 52.5,17.5C 47.4142,15.7179 42.7475,16.3846 38.5,19.5C 37.2185,16.2693 37.2185,12.9359 38.5,9.5 Z"/></g>
<g><path style="opacity:1" fill="#a9a9a9" d="M 63.5,51.5 C 64.1157,52.2022 64.1157,53.2022 63.5,54.5C 61.0199,53.0883 58.6866,51.4216 56.5,49.5C 56.8333,49.1667 57.1667,48.8333 57.5,48.5C 59.2433,50.0383 61.2433,51.0383 63.5,51.5 Z"/></g>
</svg>
