<?xml version="1.0" encoding="utf-8"?>
<!-- Generator: Adobe Illustrator 22.1.0, SVG Export Plug-In . SVG Version: 6.00 Build 0)  -->
<svg version="1.1" id="Layer_1" xmlns="http://www.w3.org/2000/svg" xmlns:xlink="http://www.w3.org/1999/xlink" x="0px" y="0px"
	 width="172px" height="46px" viewBox="0 0 172 46" style="enable-background:new 0 0 172 46;" xml:space="preserve">
<style type="text/css">
	.st0{fill:#FFFFFF;}
</style>
<path class="st0" d="M152.8,18.7c0.6,1.2,1.1,2.6,1.1,4.3c0,1.5-0.3,3.1-1.1,4.3c-0.6,1.2-1.5,2.1-2.8,2.9c-1.2,0.6-2.5,1.1-3.8,1.1
	s-2.8-0.3-3.8-1.1c-1.2-0.6-2.1-1.7-2.8-2.9c-0.8-1.2-1.1-2.8-1.1-4.3s0.3-3.1,1.1-4.3c0.6-1.2,1.5-2.1,2.8-2.9
	c1.2-0.6,2.5-1.1,3.8-1.1s2.8,0.3,3.8,1.1C151.3,16.6,152.2,17.6,152.8,18.7z M172,0v46H0V0H172z M40.5,8.9h-8v10.6H21.5V8.9h-8
	v28.2h8v-11h10.9v11h8V8.9H40.5z M54.2,8.9h-8.1v28.2h8V8.9H54.2z M86.8,8.9h-7.8v15l-12.4-15h-6.6v28.2h7.8v-15l12.4,15h6.6
	C86.8,37.1,86.8,8.9,86.8,8.9z M115.2,8.9H89.8v6.3h8.8v21.9h8V15.2h8.6V8.9z M126.2,8.9h-8v28.2h8V8.9z M161.9,23
	c0-2.8-0.6-5.4-2-7.5c-1.4-2.3-3.2-4-5.7-5.2s-5.1-1.8-8.1-1.8c-3.1,0-5.7,0.6-8.1,1.8c-2.5,1.2-4.3,3.1-5.7,5.2
	c-1.4,2.3-2,4.8-2,7.5s0.6,5.4,2,7.5c1.4,2.3,3.2,4,5.7,5.2s5.1,1.8,8.1,1.8c3.1,0,5.7-0.6,8.1-1.8c2.5-1.2,4.3-3.1,5.7-5.2
	S161.9,25.8,161.9,23z"/>
</svg>
