<?xml version="1.0" standalone="no"?>
<!DOCTYPE svg PUBLIC "-//W3C//DTD SVG 20010904//EN"
 "http://www.w3.org/TR/2001/REC-SVG-20010904/DTD/svg10.dtd">
<svg version="1.0" xmlns="http://www.w3.org/2000/svg"
 width="300.000000pt" height="300.000000pt" viewBox="0 0 300.000000 300.000000"
 preserveAspectRatio="xMidYMid meet">
<metadata>
Created by potrace 1.10, written by Peter Selinger 2001-2011
</metadata>
<g transform="translate(0.000000,300.000000) scale(0.100000,-0.100000)"
fill="#000000" stroke="none">
<path d="M2959 2428 c-92 -86 -281 -380 -388 -603 -45 -93 -211 -479 -211
-490 0 -2 6 -2 13 1 16 6 62 102 143 294 31 74 87 195 125 269 69 132 216 367
225 358 3 -3 -6 -21 -20 -42 -30 -43 -26 -58 8 -42 13 7 22 15 20 19 -7 11 19
48 34 48 8 0 12 6 9 14 -3 7 3 28 14 45 21 35 23 41 10 41 -5 0 -11 -10 -14
-22 -4 -12 -9 -19 -13 -15 -4 3 10 32 32 62 32 47 50 85 40 85 -2 0 -14 -10
-27 -22z"/>
<path d="M2835 2150 c-4 -6 -11 -7 -17 -4 -7 5 -9 2 -6 -8 4 -8 -7 -41 -22
-72 -35 -69 -35 -67 -18 -77 10 -7 9 -9 -3 -9 -19 0 -40 -42 -95 -182 -20 -51
-44 -109 -54 -128 -10 -19 -30 -75 -46 -125 -15 -49 -31 -95 -36 -101 -4 -6
-17 -38 -27 -72 -11 -33 -27 -74 -36 -91 -8 -17 -13 -31 -9 -31 4 0 -5 -9 -20
-21 -17 -14 -53 -25 -101 -32 -66 -9 -77 -8 -94 7 -30 27 -71 233 -71 353 0
41 -2 44 -16 32 -14 -11 -15 -27 -10 -94 15 -194 45 -303 89 -327 17 -9 97 -7
167 5 45 8 90 70 120 162 12 39 29 82 37 98 8 15 11 32 8 37 -3 6 -2 10 3 10
5 0 15 21 22 48 7 26 17 51 21 56 5 6 9 20 9 32 0 12 6 27 14 33 8 7 18 25 21
41 3 16 22 65 41 110 19 45 34 86 34 92 0 5 14 30 31 55 16 25 28 52 25 60 -3
8 -1 11 4 8 6 -3 10 -1 10 4 0 6 -6 11 -12 11 -7 1 -3 6 9 13 21 12 23 15 23
38 0 5 4 8 9 5 5 -4 8 2 7 11 -2 10 4 28 12 41 13 19 13 22 -1 22 -9 0 -19 -5
-22 -10z"/>
<path d="M1590 2012 c-175 -49 -298 -118 -377 -211 -76 -88 -81 -127 -23 -188
26 -28 29 -35 19 -56 -6 -13 -34 -35 -65 -50 -30 -15 -57 -33 -60 -41 -3 -8
11 -39 31 -68 l36 -55 -36 -122 c-38 -133 -44 -195 -20 -205 14 -5 20 5 16 27
-1 5 3 6 8 3 5 -4 12 0 14 6 4 9 6 8 7 -2 0 -8 7 0 15 18 8 17 21 32 30 32 9
0 13 5 10 10 -3 6 -1 10 4 10 6 0 11 8 11 18 0 11 9 27 20 37 10 9 19 20 18
24 -1 3 6 22 14 41 8 19 17 42 20 50 5 13 19 14 78 10 39 -3 74 -2 76 2 3 5
13 4 22 -1 10 -5 33 -8 52 -7 19 1 53 -1 75 -6 22 -5 57 -9 77 -8 20 0 39 -4
43 -9 3 -6 12 -8 20 -4 9 3 23 -1 32 -8 14 -12 16 -12 11 1 -5 14 0 14 37 6
l42 -10 -13 -49 c-10 -39 -10 -54 0 -78 7 -16 16 -26 20 -22 4 5 13 8 18 8 20
0 19 21 -2 45 -22 25 -25 36 -12 44 5 3 8 15 6 28 -1 13 -3 26 -3 31 -1 4 -7
7 -15 7 -8 0 -16 5 -18 11 -2 6 -37 15 -78 20 -41 5 -91 11 -110 14 -66 9
-185 16 -265 15 -96 -1 -106 -9 -159 -113 -19 -40 -49 -87 -66 -106 l-30 -34
0 35 c0 20 7 55 16 79 9 24 22 68 30 97 12 47 12 56 -2 85 -9 18 -21 34 -25
37 -5 3 -10 17 -11 30 -2 19 5 28 33 42 76 36 97 99 50 149 -47 51 -32 100 55
185 128 125 446 221 553 166 38 -19 80 -89 81 -134 0 -72 -157 -197 -385 -305
-130 -62 -160 -83 -118 -83 27 0 272 127 363 188 101 68 170 147 170 196 0 43
-48 135 -83 160 -40 29 -167 33 -257 8z"/>
<path d="M1020 1976 c-25 -18 -56 -46 -70 -62 -34 -39 -133 -172 -155 -209
-33 -54 -108 -170 -127 -195 -10 -14 -40 -56 -67 -95 -27 -38 -63 -83 -80 -99
-37 -35 -31 -54 9 -26 35 25 290 375 290 398 0 2 17 28 37 56 20 28 36 56 36
63 0 7 4 10 8 7 4 -2 13 5 20 18 15 28 27 43 62 76 91 87 156 66 111 -36 -18
-42 -21 -49 -64 -157 -18 -44 -38 -93 -45 -110 -28 -65 -96 -255 -120 -338
-15 -48 -30 -85 -35 -82 -4 3 -4 21 0 41 5 20 6 42 4 49 -3 7 5 31 17 54 19
38 20 44 7 58 -14 13 -14 21 -2 60 8 25 12 49 9 53 -3 5 1 10 7 13 7 2 10 8 5
12 -12 14 -27 -9 -47 -71 -15 -51 -16 -60 -4 -67 20 -11 8 -46 -22 -70 -21
-16 -22 -20 -9 -33 15 -16 21 -39 8 -31 -5 3 -9 -25 -10 -61 -1 -48 1 -61 8
-47 8 17 8 15 4 -7 -3 -15 -2 -47 1 -70 6 -34 9 -38 15 -23 7 17 8 18 8 3 1
-30 21 -20 21 10 0 82 81 333 208 650 48 119 86 227 84 240 -2 14 -17 29 -41
41 l-37 19 -44 -32z"/>
<path d="M2163 1983 c-12 -2 -26 -10 -32 -17 -19 -23 -89 -171 -124 -266 -20
-52 -55 -142 -78 -200 -22 -58 -45 -119 -50 -136 l-9 -32 -58 24 c-100 40
-432 98 -432 75 0 -16 12 -19 106 -31 95 -11 166 -28 279 -63 39 -12 77 -22
85 -22 29 -2 50 21 66 70 9 27 22 61 29 75 8 14 28 63 45 110 67 177 125 314
145 344 19 28 26 31 70 31 l49 0 13 -95 c7 -52 20 -178 28 -280 8 -102 17
-195 21 -207 9 -32 38 -31 30 0 -3 13 -10 89 -16 168 -6 79 -17 196 -24 259
-7 63 -14 126 -14 139 -1 13 -7 30 -14 38 -15 14 -80 24 -115 16z"/>
<path d="M1705 1910 c-3 -5 -18 -10 -32 -10 -29 0 -119 -24 -180 -48 -28 -11
-47 -27 -57 -47 -49 -101 -71 -175 -51 -175 12 0 65 126 65 155 0 19 38 38
140 69 102 30 210 41 210 21 0 -28 -158 -134 -317 -214 -46 -23 -83 -46 -83
-51 0 -17 15 -12 112 36 149 72 275 157 298 200 10 17 9 27 -5 48 -14 21 -25
26 -56 26 -21 0 -41 -4 -44 -10z"/>
<path d="M516 1874 c-33 -23 -111 -118 -183 -224 -52 -76 -162 -298 -183 -370
-26 -88 -12 -178 32 -201 25 -14 28 -10 63 81 15 41 41 100 56 131 27 54 69
165 69 181 0 4 -9 0 -20 -9 -11 -10 -20 -25 -20 -34 0 -9 -16 -47 -35 -85 -19
-38 -48 -100 -64 -139 -17 -38 -35 -70 -42 -70 -30 0 -29 103 0 170 5 11 17
38 26 60 97 228 287 495 350 495 32 0 55 -20 55 -49 0 -15 -3 -30 -6 -34 -6
-5 -25 -59 -100 -270 -19 -54 -36 -125 -39 -160 -2 -34 -2 -54 1 -44 3 9 9 15
13 13 4 -3 8 3 9 12 5 39 10 77 11 77 2 0 44 120 118 333 34 97 35 103 19 121
-9 10 -35 23 -56 29 -34 8 -43 7 -74 -14z"/>
<path d="M2099 1573 c-5 -14 -7 -33 -5 -40 3 -8 1 -11 -4 -8 -6 3 -10 2 -10
-4 0 -6 -12 -36 -26 -67 -14 -31 -27 -64 -29 -73 -2 -9 -13 -38 -24 -65 -12
-27 -20 -55 -17 -63 3 -7 2 -13 -2 -13 -5 0 -18 -20 -30 -45 -12 -25 -29 -45
-37 -45 -9 0 -15 -9 -15 -21 0 -16 4 -19 17 -15 9 4 20 1 25 -6 6 -10 8 -8 8
5 0 9 5 17 10 17 6 0 10 9 10 20 0 11 5 20 11 20 6 0 8 7 5 16 -3 8 1 23 10
31 8 9 13 24 11 34 -3 10 -2 19 2 21 4 2 20 35 34 73 14 39 32 84 38 100 7 17
13 32 14 35 1 3 5 12 8 20 4 8 13 34 21 58 13 37 13 42 0 42 -8 0 -19 -12 -25
-27z"/>
<path d="M792 1500 c-45 -73 -165 -231 -198 -261 -43 -40 -68 -44 -118 -19
-67 32 -81 60 -80 153 1 42 -2 77 -6 77 -15 0 -32 -98 -25 -140 11 -68 99
-140 170 -140 24 0 142 93 144 114 1 5 23 38 50 75 59 80 111 164 111 180 0
24 -18 9 -48 -39z"/>
</g>
</svg>
