<?xml version="1.0" standalone="no"?>
<!DOCTYPE svg PUBLIC "-//W3C//DTD SVG 20010904//EN"
 "http://www.w3.org/TR/2001/REC-SVG-20010904/DTD/svg10.dtd">
<svg version="1.0" xmlns="http://www.w3.org/2000/svg"
 width="300.000000pt" height="300.000000pt" viewBox="0 0 300.000000 300.000000"
 preserveAspectRatio="xMidYMid meet">
<metadata>
Created by potrace 1.10, written by Peter Selinger 2001-2011
</metadata>
<g transform="translate(0.000000,300.000000) scale(0.050000,-0.050000)"
fill="#ffffff" stroke="none">
<path d="M630 3270 c-76 -115 -110 -150 -146 -150 -44 0 -45 2 -15 44 40 57
40 108 -1 124 -52 20 -58 14 -17 -17 38 -27 38 -30 4 -88 -43 -73 -43 -83 -3
-83 57 0 16 -50 -46 -56 -78 -8 -220 -244 -147 -244 11 0 15 11 10 25 -14 37
107 175 153 175 55 0 0 -106 -77 -150 -45 -26 -47 -29 -10 -19 60 16 57 -18
-4 -59 -116 -76 -192 -6 -153 140 22 82 171 347 210 373 16 10 15 14 -1 15
-33 0 -199 -275 -226 -374 -51 -194 30 -298 161 -204 l59 41 36 -44 c50 -62
111 -37 175 72 60 103 88 113 88 31 0 -151 116 -179 178 -42 l36 80 31 -80
c67 -170 233 -136 342 70 17 33 32 47 33 30 1 -27 42 36 151 230 57 102 -4 27
-76 -93 -51 -85 -75 -109 -96 -96 -23 14 -24 22 -4 42 41 41 30 131 -19 166
-101 70 -215 19 -307 -139 -28 -48 -63 -97 -79 -110 -15 -13 -23 -34 -18 -48
13 -34 -61 -97 -106 -88 -30 6 -36 25 -33 112 3 128 -1 128 -113 -7 -161 -195
-257 -100 -130 127 28 49 44 99 37 111 -8 13 -6 16 3 8 9 -8 65 58 125 145
118 173 119 174 176 132 37 -28 35 -34 -63 -175 -226 -328 -232 -362 -29 -171
196 184 257 137 128 -98 -41 -74 -62 -130 -47 -125 15 5 29 24 31 42 3 19 24
60 47 93 123 171 32 290 -117 155 -111 -100 -116 -92 -22 36 127 172 139 208
83 253 -71 58 -84 50 -192 -112z m611 -151 c98 -52 3 -226 -118 -215 -65 5
-74 0 -79 -44 -4 -43 -2 -45 16 -15 14 22 47 35 87 35 36 0 76 11 89 24 18 18
21 12 14 -25 -21 -116 -192 -194 -280 -128 -150 114 103 458 271 368z"/>
<path d="M1141 3011 c-46 -49 -42 -98 7 -79 23 9 72 90 72 119 0 23 -37 4 -79
-40z"/>
<path d="M3601 3061 c-45 -66 -87 -136 -93 -156 -7 -19 30 30 82 110 l93 145
59 -31 60 -31 -91 -101 c-120 -133 -117 -170 4 -55 255 244 368 261 222 34
-73 -115 -66 -138 20 -65 79 66 80 39 4 -67 -99 -136 -229 -147 -192 -16 6 23
17 63 24 89 9 35 -20 14 -109 -77 -131 -136 -167 -143 -186 -38 -12 63 -13 64
-15 12 -7 -147 66 -169 174 -52 l76 82 24 -82 c34 -112 92 -111 179 2 52 68
64 76 64 41 0 -24 23 -68 50 -99 l50 -56 66 76 66 77 24 -53 c32 -69 80 -59
138 28 53 79 59 111 16 95 -33 -13 -42 18 -10 37 28 17 25 70 -3 70 -13 0 -18
-6 -11 -13 7 -6 -1 -38 -17 -70 -27 -51 -27 -57 0 -57 44 0 38 -33 -11 -67
-56 -40 -98 -21 -99 44 l0 53 -71 -76 c-118 -127 -220 -34 -136 123 105 197
253 270 363 179 43 -36 28 -61 -27 -47 -56 14 -268 -169 -268 -230 0 -15 43
15 96 67 52 52 110 94 127 94 54 0 121 66 106 105 -12 32 -120 75 -191 75 -37
0 -198 -166 -198 -205 -1 -18 -6 -17 -19 4 -15 24 -23 24 -49 2 -40 -32 -40
-21 -2 52 65 124 -8 181 -121 95 -39 -30 -68 -43 -65 -28 3 14 -23 43 -58 64
l-63 38 -82 -121z"/>
<path d="M5025 3167 c-14 -6 -25 -26 -25 -44 0 -39 -139 -270 -154 -256 -5 6
14 50 43 99 72 124 -31 232 -106 111 -19 -30 -31 -36 -42 -19 -9 15 -41 -17
-89 -89 -102 -154 -82 -154 66 1 133 138 145 145 179 104 16 -20 9 -45 -28
-100 -27 -40 -58 -95 -69 -123 -52 -138 109 32 193 204 47 96 107 141 107 80
-1 -42 -111 -220 -199 -320 -114 -129 -188 -124 -204 14 l-7 58 -58 -84 c-58
-84 -116 -97 -157 -35 -22 34 -18 -5 6 -49 29 -55 89 -48 139 16 42 53 100 31
100 -36 0 -86 116 -22 219 119 96 133 111 145 90 77 -7 -25 14 -4 46 45 71
107 160 192 215 206 36 8 35 10 -6 12 -30 1 -76 -30 -135 -90 -99 -102 -103
-102 -57 -10 47 94 17 143 -67 109z"/>
<path d="M1541 3123 l46 -37 -44 -56 c-74 -95 -26 -84 70 15 127 133 197 110
107 -34 -43 -70 -37 -87 18 -53 15 10 21 27 14 38 -7 12 -4 27 8 34 38 24 22
107 -24 121 -33 11 -55 1 -90 -40 -31 -36 -46 -43 -46 -23 0 17 -17 40 -39 51
-60 33 -70 25 -20 -16z"/>
<path d="M1865 3078 c-221 -242 -228 -247 -265 -177 -28 52 -121 -6 -185 -115
-48 -82 -99 -80 -117 4 -13 58 -13 59 -16 7 -1 -29 14 -73 34 -97 l36 -45 86
103 c83 98 133 123 173 84 34 -33 125 -1 137 48 16 64 185 246 238 256 l44 9
-45 2 c-30 2 -71 -25 -120 -79z"/>
<path d="M2245 3055 c-25 -56 -42 -105 -37 -109 11 -12 96 171 89 192 -4 10
-27 -28 -52 -83z"/>
<path d="M2355 3136 c62 -30 57 -72 -25 -207 -38 -64 -64 -121 -58 -128 16
-15 201 195 233 265 28 62 100 68 111 9 15 -78 -366 -672 -405 -632 -5 5 32
88 82 185 51 97 84 173 74 169 -9 -5 -41 -21 -71 -36 -79 -39 -124 1 -109 98
8 49 6 62 -7 41 -51 -79 11 -210 91 -195 l47 9 -42 -82 c-23 -45 -57 -104 -76
-132 -40 -59 -32 -100 20 -100 122 0 490 689 388 728 -62 24 -85 11 -136 -77
-70 -118 -91 -128 -64 -28 22 82 -11 140 -77 136 -11 -1 -1 -11 24 -23z"/>
<path d="M2710 3141 c6 -11 -16 -74 -49 -140 -89 -176 -71 -324 36 -296 56 15
55 11 -28 -141 -71 -130 -70 -163 5 -164 53 0 363 490 398 629 24 99 -113 164
-140 66 -7 -25 -36 -72 -64 -105 -37 -42 -48 -48 -38 -20 41 108 16 190 -56
190 -13 0 -3 -14 22 -31 59 -42 56 -58 -28 -195 -40 -64 -66 -122 -60 -129 16
-16 178 164 226 251 38 70 110 83 122 21 8 -43 -243 -480 -326 -568 -106 -113
-113 -79 -19 91 103 185 110 218 38 171 -131 -86 -167 34 -69 229 64 127 72
160 39 160 -12 0 -16 -9 -9 -19z"/>
<path d="M3199 3103 c-159 -132 -217 -340 -115 -411 50 -36 82 -25 117 39 31
59 72 63 89 9 18 -57 58 -50 118 22 53 62 68 118 33 118 -11 0 -15 -12 -9 -28
16 -43 -90 -118 -126 -88 -16 13 -24 40 -19 60 15 57 -18 42 -84 -39 -50 -62
-67 -71 -95 -54 -99 60 -77 157 69 314 96 104 99 104 208 74 89 -25 111 -92
22 -70 -53 13 -267 -171 -267 -230 0 -28 103 46 163 117 27 31 62 52 82 48 38
-8 47 -54 15 -74 -24 -15 -27 -70 -3 -70 17 0 19 9 30 109 4 32 17 62 30 67
35 11 27 80 -12 102 -95 50 -173 46 -246 -15z"/>
<path d="M4585 3135 c5 -14 -17 -68 -48 -120 -31 -53 -62 -120 -69 -150 -7
-30 22 13 64 95 42 83 75 157 72 165 -7 25 86 17 112 -9 16 -16 24 -17 24 -2
0 27 -47 46 -113 46 -31 0 -47 -9 -42 -25z"/>
<path d="M5533 3110 c7 -33 27 -76 44 -96 43 -50 -106 -188 -152 -141 -15 14
-22 38 -15 52 7 14 -1 8 -19 -14 -39 -49 -40 -79 -1 -64 48 19 35 -20 -22 -65
-61 -48 -88 -39 -88 29 0 68 -26 61 -89 -21 -66 -87 -100 -88 -152 -5 l-41 65
14 -60 c31 -137 87 -155 178 -56 47 51 70 65 70 43 0 -59 53 -84 102 -50 40
28 46 27 78 -12 l35 -43 87 39 c48 21 105 39 126 39 21 0 42 11 47 25 12 36
-39 31 -160 -15 -186 -71 -199 7 -25 144 113 88 132 116 80 116 -16 0 -47 34
-69 75 -39 71 -40 72 -28 15z"/>
<path d="M5765 3142 c64 -7 116 -19 115 -27 0 -8 0 -27 0 -41 0 -15 -63 -62
-140 -105 -157 -89 -170 -109 -72 -109 82 0 130 -48 98 -97 -12 -19 -44 -31
-74 -29 -29 2 -52 -5 -52 -15 0 -44 114 -19 140 31 32 59 -16 130 -88 130 -24
0 10 25 80 58 103 49 124 67 131 117 15 97 4 105 -130 102 l-123 -4 115 -11z"/>
<path d="M2085 3117 c70 -26 77 -87 8 -70 -55 14 -180 -83 -239 -185 -53 -91
-12 -76 91 34 72 78 98 94 131 81 32 -11 39 -8 31 14 -7 18 1 29 21 29 45 0
40 74 -7 99 -21 12 -50 20 -65 19 -14 0 -1 -10 29 -21z"/>
<path d="M5385 3117 c72 -26 76 -87 5 -69 -57 14 -173 -78 -237 -188 -51 -87
9 -57 111 56 57 63 78 74 114 61 28 -11 40 -9 32 3 -7 11 2 26 19 32 70 27 10
131 -73 126 -14 0 -1 -10 29 -21z"/>
<path d="M2081 2901 c-29 -53 -26 -67 9 -54 48 19 35 -20 -22 -65 -61 -48 -88
-39 -88 29 0 67 -20 62 -86 -21 -67 -84 -98 -87 -151 -15 l-41 55 15 -58 c27
-106 89 -125 160 -49 l60 65 38 -47 c33 -41 42 -43 81 -19 59 37 100 136 65
158 -15 8 -20 26 -12 38 7 12 9 22 3 22 -6 0 -20 -17 -31 -39z"/>
</g>
</svg>
