<svg xmlns="http://www.w3.org/2000/svg" xmlns:xlink="http://www.w3.org/1999/xlink" width="112" zoomAndPan="magnify" viewBox="0 0 84 30.000001" height="40" preserveAspectRatio="xMidYMid meet" version="1.0"><defs><g/></defs><g fill="#ffffff" fill-opacity="1"><g transform="translate(16.605845, 25.040324)"><g><path d="M 4.40625 -0.453125 C 4.34375 -0.148438 4.15625 0 3.84375 0 C 3.644531 0 3.332031 -0.046875 2.90625 -0.140625 C 2.488281 -0.242188 2.082031 -0.351562 1.6875 -0.46875 C 1.300781 -0.59375 1.03125 -0.6875 0.875 -0.75 C 0.664062 -0.832031 0.523438 -0.941406 0.453125 -1.078125 C 0.390625 -1.222656 0.347656 -1.375 0.328125 -1.53125 C 0.367188 -2.382812 0.476562 -3.46875 0.65625 -4.78125 C 0.84375 -6.09375 1.066406 -7.484375 1.328125 -8.953125 C 1.597656 -10.421875 1.894531 -11.859375 2.21875 -13.265625 C 2.539062 -14.679688 2.851562 -15.941406 3.15625 -17.046875 C 3.46875 -18.160156 3.742188 -19 3.984375 -19.5625 C 4.128906 -19.863281 4.398438 -20.015625 4.796875 -20.015625 C 4.898438 -20.015625 5.144531 -19.976562 5.53125 -19.90625 C 5.925781 -19.832031 6.378906 -19.738281 6.890625 -19.625 C 7.398438 -19.519531 7.90625 -19.394531 8.40625 -19.25 C 8.90625 -19.113281 9.3125 -18.976562 9.625 -18.84375 C 9.789062 -18.757812 9.890625 -18.644531 9.921875 -18.5 C 9.960938 -18.363281 9.984375 -18.21875 9.984375 -18.0625 C 9.984375 -17.757812 9.988281 -17.285156 10 -16.640625 C 10.007812 -16.003906 10.015625 -15.273438 10.015625 -14.453125 C 10.015625 -13.640625 10.007812 -12.8125 10 -11.96875 C 9.988281 -11.125 9.984375 -10.351562 9.984375 -9.65625 C 9.984375 -9.5 10.015625 -9.421875 10.078125 -9.421875 C 10.117188 -9.421875 10.15625 -9.453125 10.1875 -9.515625 C 10.21875 -9.585938 10.234375 -9.625 10.234375 -9.625 C 10.648438 -10.6875 11.082031 -11.804688 11.53125 -12.984375 C 11.976562 -14.171875 12.4375 -15.34375 12.90625 -16.5 C 13.382812 -17.65625 13.863281 -18.71875 14.34375 -19.6875 C 14.519531 -19.957031 14.757812 -20.09375 15.0625 -20.09375 C 15.300781 -20.09375 15.65625 -20.039062 16.125 -19.9375 C 16.59375 -19.84375 17.109375 -19.722656 17.671875 -19.578125 C 18.234375 -19.441406 18.757812 -19.300781 19.25 -19.15625 C 19.738281 -19.007812 20.101562 -18.875 20.34375 -18.75 C 20.601562 -18.664062 20.734375 -18.476562 20.734375 -18.1875 C 20.734375 -18.144531 20.726562 -18.101562 20.71875 -18.0625 C 20.707031 -18.019531 20.703125 -18 20.703125 -18 C 20.460938 -17.238281 20.175781 -16.21875 19.84375 -14.9375 C 19.507812 -13.65625 19.171875 -12.21875 18.828125 -10.625 C 18.492188 -9.039062 18.179688 -7.378906 17.890625 -5.640625 C 17.597656 -3.898438 17.351562 -2.171875 17.15625 -0.453125 C 17.113281 -0.148438 16.9375 0 16.625 0 C 16.457031 0 16.171875 -0.0390625 15.765625 -0.125 C 15.359375 -0.21875 14.941406 -0.320312 14.515625 -0.4375 C 14.097656 -0.5625 13.789062 -0.664062 13.59375 -0.75 C 13.269531 -0.90625 13.085938 -1.164062 13.046875 -1.53125 C 13.046875 -2.113281 13.109375 -2.859375 13.234375 -3.765625 C 13.367188 -4.671875 13.523438 -5.628906 13.703125 -6.640625 C 13.890625 -7.648438 14.070312 -8.601562 14.25 -9.5 C 14.425781 -10.40625 14.578125 -11.15625 14.703125 -11.75 C 14.835938 -12.351562 14.90625 -12.695312 14.90625 -12.78125 C 14.90625 -12.863281 14.882812 -12.90625 14.84375 -12.90625 C 14.8125 -12.90625 14.765625 -12.84375 14.703125 -12.71875 C 14.117188 -11.375 13.550781 -9.894531 13 -8.28125 C 12.457031 -6.675781 11.832031 -4.96875 11.125 -3.15625 C 11.007812 -2.851562 10.800781 -2.703125 10.5 -2.703125 C 10.363281 -2.703125 10.101562 -2.75 9.71875 -2.84375 C 9.34375 -2.945312 8.941406 -3.070312 8.515625 -3.21875 C 8.097656 -3.375 7.757812 -3.507812 7.5 -3.625 C 7.320312 -3.726562 7.191406 -3.859375 7.109375 -4.015625 C 7.023438 -4.179688 6.972656 -4.332031 6.953125 -4.46875 C 6.859375 -5.25 6.789062 -6.128906 6.75 -7.109375 C 6.707031 -8.085938 6.6875 -9.082031 6.6875 -10.09375 C 6.6875 -11.101562 6.664062 -12.019531 6.625 -12.84375 C 6.601562 -12.976562 6.578125 -13.046875 6.546875 -13.046875 C 6.503906 -13.046875 6.460938 -12.988281 6.421875 -12.875 C 6.035156 -11.164062 5.660156 -9.21875 5.296875 -7.03125 C 4.941406 -4.84375 4.644531 -2.648438 4.40625 -0.453125 Z M 4.40625 -0.453125 "/></g></g></g><g fill="#ffffff" fill-opacity="1"><g transform="translate(35.923442, 25.040324)"><g><path d="M 10.859375 -7.625 C 10.640625 -7.519531 10.53125 -7.398438 10.53125 -7.265625 C 10.53125 -7.179688 10.546875 -7.113281 10.578125 -7.0625 C 10.609375 -7.007812 10.625 -6.984375 10.625 -6.984375 C 11.144531 -6.191406 11.679688 -5.410156 12.234375 -4.640625 C 12.796875 -3.867188 13.328125 -3.257812 13.828125 -2.8125 C 13.953125 -2.695312 14.015625 -2.5625 14.015625 -2.40625 C 14.015625 -2.300781 13.960938 -2.179688 13.859375 -2.046875 C 13.535156 -1.722656 13.097656 -1.363281 12.546875 -0.96875 C 12.003906 -0.582031 11.507812 -0.289062 11.0625 -0.09375 C 11.0625 -0.09375 11.035156 -0.0820312 10.984375 -0.0625 C 10.941406 -0.0390625 10.867188 -0.03125 10.765625 -0.03125 C 10.628906 -0.03125 10.503906 -0.0546875 10.390625 -0.109375 C 10.285156 -0.160156 10.191406 -0.210938 10.109375 -0.265625 C 9.566406 -0.742188 9.0625 -1.351562 8.59375 -2.09375 C 8.125 -2.832031 7.722656 -3.597656 7.390625 -4.390625 C 7.066406 -5.179688 6.8125 -5.867188 6.625 -6.453125 C 6.570312 -6.609375 6.507812 -6.726562 6.4375 -6.8125 C 6.363281 -6.90625 6.269531 -6.953125 6.15625 -6.953125 L 5.796875 -6.953125 C 5.535156 -6.953125 5.382812 -6.804688 5.34375 -6.515625 C 4.976562 -4.453125 4.6875 -2.441406 4.46875 -0.484375 C 4.40625 -0.160156 4.226562 0 3.9375 0 C 3.726562 0 3.394531 -0.0546875 2.9375 -0.171875 C 2.476562 -0.296875 2.039062 -0.421875 1.625 -0.546875 C 1.21875 -0.679688 0.976562 -0.757812 0.90625 -0.78125 C 0.675781 -0.882812 0.53125 -1 0.46875 -1.125 C 0.414062 -1.25 0.378906 -1.382812 0.359375 -1.53125 C 0.378906 -2.382812 0.46875 -3.4375 0.625 -4.6875 C 0.789062 -5.9375 1.003906 -7.273438 1.265625 -8.703125 C 1.523438 -10.140625 1.800781 -11.546875 2.09375 -12.921875 C 2.394531 -14.304688 2.6875 -15.550781 2.96875 -16.65625 C 3.007812 -16.769531 3.03125 -16.863281 3.03125 -16.9375 C 3.03125 -17.007812 3.03125 -17.070312 3.03125 -17.125 C 3.03125 -17.382812 3.003906 -17.648438 2.953125 -17.921875 C 2.898438 -18.191406 2.875 -18.390625 2.875 -18.515625 C 2.875 -18.648438 2.921875 -18.769531 3.015625 -18.875 C 3.109375 -18.988281 3.203125 -19.066406 3.296875 -19.109375 C 3.878906 -19.347656 4.660156 -19.585938 5.640625 -19.828125 C 6.617188 -20.066406 7.726562 -20.1875 8.96875 -20.1875 C 9.925781 -20.1875 10.828125 -19.96875 11.671875 -19.53125 C 12.523438 -19.09375 13.265625 -18.523438 13.890625 -17.828125 C 14.523438 -17.140625 15.023438 -16.410156 15.390625 -15.640625 C 15.753906 -14.867188 15.9375 -14.164062 15.9375 -13.53125 C 15.9375 -12.632812 15.707031 -11.800781 15.25 -11.03125 C 14.800781 -10.257812 14.195312 -9.582031 13.4375 -9 C 12.675781 -8.414062 11.816406 -7.957031 10.859375 -7.625 Z M 8.015625 -16.4375 C 7.648438 -16.414062 7.414062 -16.238281 7.3125 -15.90625 C 7.300781 -15.820312 7.25 -15.597656 7.15625 -15.234375 C 7.0625 -14.878906 6.953125 -14.457031 6.828125 -13.96875 C 6.710938 -13.476562 6.597656 -12.992188 6.484375 -12.515625 C 6.378906 -12.035156 6.289062 -11.625 6.21875 -11.28125 C 6.15625 -10.9375 6.125 -10.738281 6.125 -10.6875 C 6.125 -10.476562 6.234375 -10.375 6.453125 -10.375 C 7.390625 -10.375 8.234375 -10.570312 8.984375 -10.96875 C 9.734375 -11.375 10.332031 -11.867188 10.78125 -12.453125 C 11.226562 -13.046875 11.453125 -13.644531 11.453125 -14.25 C 11.453125 -15.03125 11.179688 -15.59375 10.640625 -15.9375 C 10.109375 -16.289062 9.472656 -16.46875 8.734375 -16.46875 C 8.609375 -16.46875 8.484375 -16.46875 8.359375 -16.46875 C 8.242188 -16.46875 8.128906 -16.457031 8.015625 -16.4375 Z M 8.015625 -16.4375 "/></g></g></g><g fill="#ffffff" fill-opacity="1"><g transform="translate(51.46151, 25.040324)"><g><path d="M 13.265625 -19.65625 C 13.335938 -19.914062 13.546875 -20.046875 13.890625 -20.046875 C 14.023438 -20.046875 14.300781 -19.992188 14.71875 -19.890625 C 15.144531 -19.785156 15.578125 -19.671875 16.015625 -19.546875 C 16.460938 -19.429688 16.785156 -19.335938 16.984375 -19.265625 C 17.222656 -19.179688 17.34375 -18.988281 17.34375 -18.6875 C 17.34375 -18.644531 17.335938 -18.597656 17.328125 -18.546875 C 17.316406 -18.503906 17.3125 -18.484375 17.3125 -18.484375 C 17.070312 -17.796875 16.785156 -16.804688 16.453125 -15.515625 C 16.117188 -14.234375 15.769531 -12.765625 15.40625 -11.109375 C 15.050781 -9.460938 14.71875 -7.722656 14.40625 -5.890625 C 14.101562 -4.066406 13.851562 -2.265625 13.65625 -0.484375 C 13.632812 -0.316406 13.5625 -0.191406 13.4375 -0.109375 C 13.320312 -0.0351562 13.179688 0 13.015625 0 C 12.796875 0 12.488281 -0.03125 12.09375 -0.09375 C 11.707031 -0.15625 11.296875 -0.226562 10.859375 -0.3125 C 10.421875 -0.40625 10.023438 -0.5 9.671875 -0.59375 C 9.328125 -0.695312 9.070312 -0.78125 8.90625 -0.84375 C 8.726562 -0.914062 8.582031 -1.019531 8.46875 -1.15625 C 8.363281 -1.300781 8.289062 -1.445312 8.25 -1.59375 C 8.050781 -2.3125 7.851562 -3.15625 7.65625 -4.125 C 7.46875 -5.09375 7.296875 -6.101562 7.140625 -7.15625 C 6.984375 -8.207031 6.84375 -9.1875 6.71875 -10.09375 C 6.601562 -11 6.515625 -11.753906 6.453125 -12.359375 C 6.410156 -12.515625 6.359375 -12.59375 6.296875 -12.59375 C 6.253906 -12.59375 6.21875 -12.515625 6.1875 -12.359375 C 5.820312 -10.660156 5.46875 -8.773438 5.125 -6.703125 C 4.789062 -4.628906 4.503906 -2.554688 4.265625 -0.484375 C 4.242188 -0.335938 4.179688 -0.21875 4.078125 -0.125 C 3.984375 -0.0390625 3.875 0 3.75 0 C 3.550781 0 3.253906 -0.0390625 2.859375 -0.125 C 2.472656 -0.21875 2.085938 -0.320312 1.703125 -0.4375 C 1.328125 -0.5625 1.039062 -0.664062 0.84375 -0.75 C 0.5 -0.925781 0.328125 -1.1875 0.328125 -1.53125 C 0.347656 -2.40625 0.445312 -3.492188 0.625 -4.796875 C 0.8125 -6.097656 1.035156 -7.488281 1.296875 -8.96875 C 1.566406 -10.445312 1.851562 -11.890625 2.15625 -13.296875 C 2.457031 -14.710938 2.757812 -15.972656 3.0625 -17.078125 C 3.363281 -18.191406 3.632812 -19.03125 3.875 -19.59375 C 3.988281 -19.875 4.21875 -20.015625 4.5625 -20.015625 C 4.757812 -20.015625 5.066406 -19.976562 5.484375 -19.90625 C 5.910156 -19.832031 6.359375 -19.75 6.828125 -19.65625 C 7.296875 -19.570312 7.710938 -19.484375 8.078125 -19.390625 C 8.453125 -19.304688 8.695312 -19.242188 8.8125 -19.203125 C 8.976562 -19.140625 9.113281 -19.03125 9.21875 -18.875 C 9.332031 -18.726562 9.398438 -18.578125 9.421875 -18.421875 C 9.503906 -17.835938 9.59375 -17.113281 9.6875 -16.25 C 9.789062 -15.394531 9.894531 -14.5 10 -13.5625 C 10.113281 -12.625 10.210938 -11.71875 10.296875 -10.84375 C 10.390625 -9.976562 10.476562 -9.253906 10.5625 -8.671875 C 10.601562 -8.523438 10.644531 -8.453125 10.6875 -8.453125 C 10.738281 -8.453125 10.773438 -8.523438 10.796875 -8.671875 C 11.035156 -10.128906 11.300781 -11.59375 11.59375 -13.0625 C 11.882812 -14.53125 12.175781 -15.851562 12.46875 -17.03125 C 12.757812 -18.21875 13.023438 -19.09375 13.265625 -19.65625 Z M 13.265625 -19.65625 "/></g></g></g></svg>